<svg width="40" height="40" viewBox="0 0 40 40" fill="none" xmlns="http://www.w3.org/2000/svg">
<rect width="40" height="40" rx="8" fill="white"/>
<path d="M7.17233 11C5.94025 11 5.32421 11 5.09329 11.4001C4.86237 11.8002 5.17057 12.3336 5.78695 13.4004L9.60002 20L12.2 15.5V12.6C12.2 11.8458 12.2 11.4686 11.9657 11.2343C11.7314 11 11.3543 11 10.6 11H7.17233Z" fill="black"/>
<path d="M18.6054 35.6009C19.2201 36.6673 19.5275 37.2004 19.9892 37.2009C20.4509 37.2013 20.7593 36.6687 21.3761 35.6036L25.2 29H20L17.4833 30.4509C16.8298 30.8276 16.5031 31.0159 16.4171 31.336C16.3312 31.656 16.5195 31.9827 16.8962 32.6362L17.3942 33.5L18.6054 35.6009Z" fill="black"/>
<path d="M34.1976 13.3978C34.8107 12.3318 35.1173 11.7989 34.8863 11.3994C34.6552 11 34.0404 11 32.8107 11H25.2L27.8 15.5L30.3062 16.948C30.9604 17.326 31.2875 17.515 31.608 17.4289C31.9284 17.3428 32.1168 17.0153 32.4935 16.3604L32.9884 15.5L34.1976 13.3978Z" fill="black"/>
<path d="M21.3761 4.39645C20.7593 3.33126 20.4509 2.79867 19.9892 2.79911C19.5275 2.79956 19.2201 3.33275 18.6054 4.39912L14.8 11L12.2 15.5L9.60002 20L4.40002 29L25.2 11L21.3761 4.39645Z" fill="#51519F"/>
<path d="M30.4 20L27.8 15.5L25.2 11L4.40002 29L30.4 20Z" fill="#92487E"/>
<path d="M4.40002 29H14.8H20H25.2H32.8107C34.0404 29 34.6552 29 34.8863 28.6006C35.1173 28.2011 34.8107 27.6682 34.1976 26.6022L30.4 20L4.40002 29Z" fill="#D55D45"/>
<path d="M9.60002 20L5.78695 13.4004C5.17057 12.3336 4.86237 11.8002 5.09329 11.4001C5.32421 11 5.94025 11 7.17233 11H10.6C11.3543 11 11.7314 11 11.9657 11.2343C12.2 11.4686 12.2 11.8458 12.2 12.6V15.5M9.60002 20L4.40002 29M9.60002 20L12.2 15.5M4.40002 29H14.8H20M4.40002 29L25.2 11M4.40002 29L30.4 20M25.2 29L21.3761 35.6036C20.7593 36.6687 20.4509 37.2013 19.9892 37.2009C19.5275 37.2004 19.2201 36.6673 18.6054 35.6009L17.3942 33.5L16.8962 32.6362C16.5195 31.9827 16.3312 31.656 16.4171 31.336C16.5031 31.0159 16.8298 30.8276 17.4833 30.4509L20 29M25.2 29H32.8107C34.0404 29 34.6552 29 34.8863 28.6006C35.1173 28.2011 34.8107 27.6682 34.1976 26.6022L30.4 20M25.2 29H20M30.4 20L27.8 15.5M25.2 11H32.8107C34.0404 11 34.6552 11 34.8863 11.3994C35.1173 11.7989 34.8107 12.3318 34.1976 13.3978L32.9884 15.5L32.4935 16.3604C32.1168 17.0153 31.9284 17.3428 31.608 17.4289C31.2875 17.515 30.9604 17.326 30.3062 16.948L27.8 15.5M25.2 11L21.3761 4.39645C20.7593 3.33126 20.4509 2.79867 19.9892 2.79911C19.5275 2.79956 19.2201 3.33275 18.6054 4.39912L14.8 11L12.2 15.5M25.2 11L27.8 15.5" stroke="black" stroke-width="1.6"/>
</svg>
